<svg width="45" height="45" viewBox="0 0 45 45" fill="none" xmlns="http://www.w3.org/2000/svg">
<path id="git" d="M44.1587 20.5179L24.485 0.844209C23.3594 -0.281403 21.4997 -0.281403 20.3741 0.844209L16.3121 4.9062L21.4997 10.0938C22.7232 9.70228 24.0935 9.94698 25.0233 10.9258C26.0021 11.9046 26.2468 13.2749 25.8553 14.4984L30.8471 19.4902C32.0706 19.0987 33.4409 19.3434 34.4197 20.3222C35.79 21.6436 35.79 23.8458 34.4197 25.2162C33.0494 26.5865 30.8961 26.5865 29.5258 25.2162C28.498 24.1884 28.2533 22.7202 28.7917 21.4478L24.1424 16.7985V29.0334C24.485 29.1803 24.7786 29.425 25.0723 29.6697C26.4426 30.991 26.4426 33.1933 25.0723 34.5636C23.702 35.885 21.5486 35.885 20.1783 34.5636C18.808 33.1933 18.808 31.04 20.1783 29.6697C20.5209 29.3271 20.9124 29.0824 21.3039 28.9356V16.5538C20.9124 16.407 20.5209 16.1134 20.1783 15.8197C19.1506 14.792 18.9059 13.3238 19.4442 12.0514L14.3055 6.96166L0.847138 20.4201C-0.278473 21.5457 -0.278473 23.4054 0.847138 24.531L20.4719 44.1558C21.5975 45.2814 23.4573 45.2814 24.5829 44.1558L44.1098 24.6289C45.2843 23.4543 45.2843 21.6436 44.1587 20.5179Z" fill="white"/>
</svg>
