<svg width="45" height="45" viewBox="0 0 45 45" fill="none" xmlns="http://www.w3.org/2000/svg">
<path id="Vector" d="M44.9386 3.58117C44.6112 1.86221 43.2811 0.470668 41.5826 0.102319C41.5007 0.0818554 41.4189 0.0818554 41.3165 0.0613915C41.2961 0.0613915 41.2756 0.0204638 41.2551 0H3.72446C3.704 0.0204638 3.68354 0.0613915 3.64261 0.0613915C1.94411 0.347885 0.51164 1.6985 0.122827 3.41746C0.102363 3.47885 0.0614355 3.56071 0.0205078 3.64256V41.2756C0.0409717 41.3165 0.0818993 41.337 0.0818993 41.3779C0.491176 43.2606 1.63715 44.427 3.49936 44.8977C3.56075 44.9181 3.60168 44.9591 3.64261 45H41.3165C41.3575 44.9795 41.3779 44.9386 41.4189 44.9181C43.2811 44.4884 44.427 43.3629 44.8977 41.5007C44.9182 41.4393 44.8977 41.3574 44.9182 41.296C44.9182 41.2756 44.9591 41.2551 44.9796 41.2347V3.70396C44.9796 3.66303 44.9386 3.64257 44.9386 3.58117ZM26.1119 24.9454H25.8868C24.1883 24.9454 22.4693 24.9454 20.7708 24.9454C20.689 24.9454 20.6071 24.9454 20.5253 24.9454C20.5253 24.9659 20.5048 24.9659 20.5048 24.9864C20.5048 25.0682 20.5048 25.1501 20.5048 25.2319V41.0096H16.0232V24.9659H10.3957V21.3847H26.0914V24.9454H26.1119ZM41.2142 35.648C41.1733 36.3438 41.071 37.0191 40.7845 37.6739C40.7026 37.8786 40.6412 38.0628 40.5389 38.2674C40.1706 39.045 39.5566 39.5975 38.8404 40.0477C38.0219 40.5593 37.1214 40.8458 36.1801 41.03C35.1365 41.2347 34.0928 41.296 33.0287 41.2551C32.5171 41.2347 32.0055 41.2347 31.4939 41.1733C30.2865 41.03 29.0996 40.764 27.9946 40.2319C27.9332 40.2115 27.8513 40.1091 27.8513 40.0477C27.8513 38.7176 27.8513 37.3875 27.8513 36.0573C27.8513 36.0368 27.8513 36.0164 27.8513 35.9754C28.1788 36.2005 28.5062 36.4256 28.8336 36.6098C29.6317 37.0805 30.5116 37.4079 31.412 37.6126C32.1897 37.7967 32.9673 37.8172 33.7449 37.7763C34.3384 37.7558 34.9318 37.6126 35.4639 37.3465C35.9345 37.101 36.3234 36.7735 36.4257 36.221C36.528 35.7299 36.4871 35.2387 36.2006 34.809C35.7913 34.1951 35.2183 33.8063 34.5839 33.4789C33.8677 33.131 33.1515 32.824 32.4148 32.4966C31.3302 32.0055 30.2661 31.4734 29.3861 30.6548C28.6699 29.9795 28.1378 29.1814 27.8923 28.2196C27.749 27.6467 27.7081 27.0737 27.7285 26.5007C27.749 25.0887 28.2606 23.8813 29.2633 22.8786C30.0819 22.06 31.0846 21.5689 32.1897 21.2824C32.9468 21.0982 33.704 20.955 34.4816 20.9345C35.0341 20.9345 35.5867 20.8731 36.1187 20.8936C36.9577 20.9141 37.7763 20.955 38.5948 21.1596C39.1269 21.3029 39.6794 21.4461 40.2115 21.5689C40.3138 21.5894 40.3547 21.6508 40.3547 21.7735C40.3547 23.0423 40.3547 24.3315 40.3547 25.6003C40.3547 25.6412 40.3547 25.6821 40.3343 25.7435C40.1706 25.6412 40.0273 25.5593 39.8841 25.4775C39.2292 25.1091 38.5335 24.8636 37.8172 24.6794C37.0191 24.4952 36.221 24.3724 35.4025 24.3929C34.85 24.4134 34.277 24.4952 33.7654 24.6794C33.131 24.9045 32.6194 25.2729 32.3943 25.9482C32.2101 26.4802 32.3534 26.9304 32.6808 27.3602C33.0901 27.8922 33.6426 28.2606 34.236 28.5471C35.0341 28.9359 35.8527 29.2633 36.6303 29.6317C37.5307 30.0614 38.4311 30.4911 39.1883 31.1255C39.8431 31.678 40.4366 32.292 40.764 33.1105C40.9482 33.6016 41.1119 34.1132 41.1119 34.6658C41.1938 34.9932 41.2347 35.3206 41.2142 35.648Z" fill="white"/>
</svg>
